<svg xmlns="http://www.w3.org/2000/svg" viewBox="0 0 512 512" width="512" height="512">
  <defs>
    <clipPath id="tile"><rect x="16" y="16" width="480" height="480" rx="108"/></clipPath>
    <pattern id="argyle" width="120" height="160" patternUnits="userSpaceOnUse">
      <rect width="120" height="160" fill="#150700"/>
      <polygon points="60,0 120,80 60,160 0,80" fill="#491A00"/>
      <polygon points="0,0 60,80 0,160" fill="#2D1000"/>
      <polygon points="120,0 60,80 120,160" fill="#2D1000"/>
      <g stroke="#D94F00" stroke-width="2" opacity="0.30" stroke-dasharray="6 7">
        <path d="M60 -80 L200 80 M60 -80 L-80 80 M60 80 L200 240 M60 80 L-80 240 M60 240 L200 400 M60 240 L-80 400"/>
      </g>
    </pattern>
  </defs>
  <g clip-path="url(#tile)"><rect x="16" y="16" width="480" height="480" fill="url(#argyle)"/></g>
  <rect x="16" y="16" width="480" height="480" rx="108" fill="none" stroke="#2BD3D3" stroke-width="6"/>
  <g transform="translate(142.0 142.0) scale(9.5)" fill="#D94F00"><path d="M5.25 0v5.25h13.5v13.5H24V7.5L16.5 0Zm13.5 18.75H5.25V5.25H0V16.5L7.5 24h11.25Z"/></g>
</svg>
